# xmcd CD database file
#
# Track frame offsets:
#	150
#	16939
#	28686
#	41934
#	53708
#	67757
#	81381
#	91352
#	105441
#	118884
#	131041
#	143141
#
# Disc length: 2148 seconds
#
# Revision: 0
# Processed by: cddbd v1.5.1PL0 Copyright (c) Steve Scherf et al.
# Submitted via: freeDB plugin v1.0
#
DISCID=a108620c
DTITLE=MILTON BANANA TRIO - SAMBA E ISSO
DYEAR=1900
DGENRE=Jazz
TTITLE0=Moca - Eu Nasci Ha 10 Mil Anos Atras
TTITLE1=Conto Ate Dez - Bola Pra Frente
TTITLE2=Deus Tem Mais Pra Dar - Na Beira Do Mangue
TTITLE3=Te Segura - Se Voce Quiser
TTITLE4=Cresci No Morro - Voce Nao Passa De Mulher
TTITLE5=O Surdo - Nao Deixe O Samba Morrier
TTITLE6=Cavaquinho Camarada - Antes Ele Do Que Eu
TTITLE7=Lati  Lover - Incompatibilidade De Genios
TTITLE8=Testamento De Partideiro - O Quitadeiro
TTITLE9=O Mar Serenou - Fuzue
TTITLE10=Samba Sem Cuica - Tatu Engenheiro Do Metro
TTITLE11=Selecao Do Morro-Ave Maria No Morro-Eu Nasci No Morro
EXTD=
EXTT0=
EXTT1=
EXTT2=
EXTT3=
EXTT4=
EXTT5=
EXTT6=
EXTT7=
EXTT8=
EXTT9=
EXTT10=
EXTT11=
PLAYORDER=
